<?xml version="1.0" standalone="no"?>
<!DOCTYPE svg PUBLIC "-//W3C//DTD SVG 20010904//EN"
 "http://www.w3.org/TR/2001/REC-SVG-20010904/DTD/svg10.dtd">
<svg version="1.0" xmlns="http://www.w3.org/2000/svg"
 width="4000.000000pt" height="4000.000000pt" viewBox="0 0 4000.000000 4000.000000"
 preserveAspectRatio="xMidYMid meet">

<g transform="translate(0.000000,4000.000000) scale(0.100000,-0.100000)"
fill="#000000" stroke="none">
<path d="M8099 21544 c-1245 -1720 -2268 -3133 -2272 -3140 -7 -12 189 -14
1271 -14 l1279 0 2265 3128 c1245 1720 2267 3133 2272 3140 6 9 -251 12 -1272
12 l-1279 0 -2264 -3126z m3209 2824 c8 -8 12 -56 12 -150 l0 -138 138 0 c94
0 142 -4 150 -12 17 -17 17 -249 0 -266 -8 -8 -56 -12 -150 -12 l-138 0 0
-138 c0 -94 -4 -142 -12 -150 -17 -17 -259 -17 -276 0 -8 8 -12 56 -12 150 l0
137 -142 3 -143 3 0 140 0 140 143 3 142 3 0 137 c0 94 4 142 12 150 8 8 53
12 138 12 85 0 130 -4 138 -12z m-3670 -5350 c8 -8 12 -52 12 -133 0 -81 -4
-125 -12 -133 -17 -17 -469 -17 -486 0 -8 8 -12 52 -12 133 0 81 4 125 12 133
9 9 77 12 243 12 166 0 234 -3 243 -12z"/>
<path d="M8685 18488 c-1243 -1717 -2266 -3129 -2273 -3140 -13 -18 24 -18
1269 -16 l1282 3 2269 3133 c1247 1723 2268 3135 2268 3137 0 3 -575 5 -1277
5 l-1278 0 -2260 -3122z m3183 2710 c8 -8 12 -56 12 -150 l0 -138 138 0 c94 0
142 -4 150 -12 17 -17 17 -249 0 -266 -8 -8 -56 -12 -150 -12 l-138 0 0 -138
c0 -94 -4 -142 -12 -150 -8 -8 -53 -12 -138 -12 -85 0 -130 4 -138 12 -8 8
-12 56 -12 150 l0 137 -142 3 -143 3 0 140 0 140 143 3 142 3 0 137 c0 94 4
142 12 150 8 8 53 12 138 12 85 0 130 -4 138 -12z m-3670 -5350 c8 -8 12 -52
12 -133 0 -81 -4 -125 -12 -133 -17 -17 -469 -17 -486 0 -8 8 -12 52 -12 133
0 81 4 125 12 133 9 9 77 12 243 12 166 0 234 -3 243 -12z"/>
<path d="M13935 21286 l-36 -45 325 -1463 c179 -805 335 -1505 346 -1555 l22
-93 517 0 517 0 239 860 c131 473 240 858 242 856 3 -2 112 -388 243 -858
l238 -853 518 -3 519 -2 343 1556 343 1555 -36 45 -36 44 -473 0 -473 0 -30
-157 c-17 -87 -79 -415 -139 -730 -60 -314 -111 -570 -113 -567 -3 2 -95 330
-206 727 l-201 722 -499 0 -498 0 -201 -723 c-110 -397 -203 -719 -207 -715
-3 5 -66 323 -138 708 -73 385 -134 708 -137 718 -5 16 -37 17 -479 17 l-474
0 -36 -44z"/>
<path d="M18747 21292 l-37 -38 0 -290 0 -290 33 -32 33 -32 425 0 425 0 37
38 37 38 0 285 0 285 -38 37 -38 37 -420 0 -420 0 -37 -38z"/>
<path d="M25007 21292 l-37 -38 0 -380 0 -380 33 -32 33 -32 447 0 447 0 0
-1118 0 -1118 33 -32 33 -32 480 0 480 0 32 33 32 33 0 1117 0 1117 448 0 448
0 32 33 32 33 0 380 0 380 -38 37 -38 37 -1430 0 -1430 0 -37 -38z"/>
<path d="M30215 21299 l-35 -31 0 -297 0 -297 33 -32 33 -32 431 0 431 0 31
35 31 36 0 287 0 288 -38 37 -38 37 -422 0 -421 0 -36 -31z"/>
<path d="M21463 20515 c-87 -24 -172 -73 -239 -139 l-64 -62 0 51 c0 45 -4 55
-33 83 l-33 32 -400 0 -400 0 -37 -38 -37 -38 0 -1100 0 -1100 38 -37 38 -37
425 0 425 0 36 38 37 37 4 520 c4 552 8 608 58 771 73 241 216 290 491 170 35
-15 38 -15 47 3 9 15 241 547 298 679 l14 33 -107 51 c-148 69 -267 98 -403
97 -58 0 -130 -7 -158 -14z"/>
<path d="M23305 20524 c-16 -2 -73 -11 -125 -20 -603 -102 -990 -570 -990
-1199 0 -322 88 -581 278 -815 224 -277 503 -392 987 -407 459 -14 779 56
1012 223 120 86 264 247 346 387 l28 47 -28 50 c-19 34 -36 51 -53 54 -14 3
-210 22 -436 42 l-411 38 -66 -71 c-95 -101 -158 -128 -292 -128 -81 0 -109 4
-147 22 -93 43 -171 140 -193 241 l-7 32 809 0 809 0 38 39 38 39 -6 139 c-14
298 -51 483 -129 647 -61 128 -107 196 -202 294 -167 175 -377 279 -665 328
-91 15 -520 28 -595 18z m353 -653 c107 -33 163 -95 203 -222 11 -34 19 -65
19 -70 0 -5 -140 -9 -335 -9 -286 0 -335 2 -335 15 0 31 48 143 76 178 87 110
231 152 372 108z"/>
<path d="M29387 20514 c-92 -22 -167 -64 -239 -134 l-68 -66 0 51 c0 45 -4 55
-33 83 l-33 32 -406 0 -406 0 -31 -35 -31 -36 0 -1102 0 -1103 38 -37 38 -37
430 0 430 0 31 33 32 32 4 535 c5 568 8 612 58 770 70 223 200 279 437 188 83
-32 94 -34 101 -19 8 14 191 434 277 634 l33 77 -59 30 c-96 49 -202 87 -283
104 -92 19 -241 19 -320 0z"/>
<path d="M33087 20520 c-166 -30 -312 -100 -424 -203 l-43 -40 0 66 c0 60 -3
70 -31 102 l-31 35 -407 0 -407 0 -32 -33 -32 -33 0 -1530 0 -1530 33 -32 33
-32 435 0 435 0 32 33 32 33 0 447 c0 246 2 447 4 447 2 0 33 -17 67 -38 136
-82 265 -119 450 -129 383 -20 704 151 894 475 146 251 200 666 135 1047 -24
143 -67 272 -132 397 -141 275 -323 430 -593 504 -69 19 -341 28 -418 14z
m-25 -765 c25 -9 64 -34 87 -58 79 -77 108 -162 118 -333 14 -252 -46 -421
-171 -487 -57 -29 -163 -28 -228 2 -65 31 -130 104 -157 177 -64 169 -46 455
36 587 63 101 202 150 315 112z"/>
<path d="M18742 20447 l-32 -33 0 -1110 0 -1110 33 -32 33 -32 425 0 425 0 37
38 37 38 0 1100 0 1100 -38 37 -38 37 -425 0 -425 0 -32 -33z"/>
<path d="M30212 20447 l-32 -33 0 -1110 0 -1110 33 -32 33 -32 425 0 425 0 37
38 37 38 0 1102 0 1101 -31 36 -31 35 -432 0 -432 0 -32 -33z"/>
</g>
</svg>
