<?xml version="1.0" standalone="no"?>
<!DOCTYPE svg PUBLIC "-//W3C//DTD SVG 20010904//EN"
 "http://www.w3.org/TR/2001/REC-SVG-20010904/DTD/svg10.dtd">
<svg version="1.0" xmlns="http://www.w3.org/2000/svg"
 width="4000.000000pt" height="4000.000000pt" viewBox="0 0 4000.000000 4000.000000"
 preserveAspectRatio="xMidYMid meet">

<g transform="translate(0.000000,4000.000000) scale(0.100000,-0.100000)"
fill="#000000" stroke="none">
<path d="M8099 21544 c-1245 -1720 -2268 -3133 -2272 -3140 -7 -12 189 -14
1271 -14 l1279 0 2265 3128 c1245 1720 2267 3133 2272 3140 6 9 -251 12 -1272
12 l-1279 0 -2264 -3126z m3209 2824 c8 -8 12 -56 12 -150 l0 -138 138 0 c94
0 142 -4 150 -12 17 -17 17 -249 0 -266 -8 -8 -56 -12 -150 -12 l-138 0 0
-138 c0 -94 -4 -142 -12 -150 -17 -17 -259 -17 -276 0 -8 8 -12 56 -12 150 l0
137 -142 3 -143 3 0 140 0 140 143 3 142 3 0 137 c0 94 4 142 12 150 8 8 53
12 138 12 85 0 130 -4 138 -12z m-3670 -5350 c8 -8 12 -52 12 -133 0 -81 -4
-125 -12 -133 -17 -17 -469 -17 -486 0 -8 8 -12 52 -12 133 0 81 4 125 12 133
9 9 77 12 243 12 166 0 234 -3 243 -12z"/>
<path d="M8685 18488 c-1243 -1717 -2266 -3129 -2273 -3140 -13 -18 24 -18
1269 -16 l1282 3 2269 3133 c1247 1723 2268 3135 2268 3137 0 3 -575 5 -1277
5 l-1278 0 -2260 -3122z m3183 2710 c8 -8 12 -56 12 -150 l0 -138 138 0 c94 0
142 -4 150 -12 17 -17 17 -249 0 -266 -8 -8 -56 -12 -150 -12 l-138 0 0 -138
c0 -94 -4 -142 -12 -150 -8 -8 -53 -12 -138 -12 -85 0 -130 4 -138 12 -8 8
-12 56 -12 150 l0 137 -142 3 -143 3 0 140 0 140 143 3 142 3 0 137 c0 94 4
142 12 150 8 8 53 12 138 12 85 0 130 -4 138 -12z m-3670 -5350 c8 -8 12 -52
12 -133 0 -81 -4 -125 -12 -133 -17 -17 -469 -17 -486 0 -8 8 -12 52 -12 133
0 81 4 125 12 133 9 9 77 12 243 12 166 0 234 -3 243 -12z"/>
<path d="M13935 21286 l-36 -45 325 -1463 c179 -805 335 -1505 346 -1555 l22
-93 517 0 517 0 239 860 c131 473 240 858 242 856 3 -2 112 -388 243 -858
l238 -853 518 -3 519 -2 343 1556 343 1555 -36 45 -36 44 -473 0 -473 0 -30
-157 c-17 -87 -79 -415 -139 -730 -60 -314 -111 -570 -113 -567 -3 2 -95 330
-206 727 l-201 722 -499 0 -498 0 -201 -723 c-110 -397 -203 -719 -207 -715
-3 5 -66 323 -138 708 -73 385 -134 708 -137 718 -5 16 -37 17 -479 17 l-474
0 -36 -44z"/>
<path d="M18747 21292 l-37 -38 0 -290 0 -290 33 -32 33 -32 425 0 425 0 37
38 37 38 0 285 0 285 -38 37 -38 37 -420 0 -420 0 -37 -38z"/>
<path d="M25007 21292 l-37 -38 0 -380 0 -380 33 -32 33 -32 447 0 447 0 0
-1118 0 -1118 33 -32 33 -32 480 0 480 0 32 33 32 33 0 1117 0 1117 448 0 448
0 32 33 32 33 0 380 0 380 -38 37 -38 37 -1430 0 -1430 0 -37 -38z"/>
<path d="M30215 21299 l-35 -31 0 -297 0 -297 33 -32 33 -32 431 0 431 0 31
35 31 36 0 287 0 288 -38 37 -38 37 -422 0 -421 0 -36 -31z"/>
<path d="M21468 20515 c-90 -23 -175 -71 -244 -139 l-64 -62 0 51 c0 45 -4 55
-33 83 l-33 32 -400 0 -400 0 -37 -38 -37 -38 0 -1100 0 -1100 38 -37 38 -37
425 0 425 0 36 38 37 37 4 530 c4 436 7 545 21 615 36 188 79 280 159 344 33
26 48 31 108 34 76 5 126 -6 231 -49 37 -15 70 -25 72 -21 2 4 66 149 141 322
76 173 146 334 156 358 l18 42 -92 44 c-157 75 -244 98 -387 102 -87 3 -142
-1 -182 -11z"/>
<path d="M23270 20519 c-211 -27 -418 -101 -580 -208 -80 -52 -231 -201 -288
-284 -132 -192 -197 -398 -209 -662 -15 -343 72 -623 271 -871 181 -225 413
-348 751 -396 135 -19 551 -16 695 5 236 35 429 108 570 215 94 71 226 214
297 321 l62 93 -27 54 c-21 44 -31 55 -57 59 -42 6 -805 75 -830 75 -12 -1
-36 -21 -59 -50 -145 -184 -423 -203 -570 -39 -41 45 -86 137 -86 174 0 13
106 15 808 15 l808 0 38 39 39 39 -11 189 c-13 216 -31 327 -74 463 -145 453
-497 714 -1037 769 -119 13 -415 12 -511 0z m439 -666 c68 -35 121 -101 150
-190 12 -35 21 -70 21 -78 0 -13 -46 -15 -336 -15 l-336 0 7 38 c23 126 119
236 233 269 76 21 193 11 261 -24z"/>
<path d="M29387 20514 c-92 -22 -167 -64 -239 -134 l-68 -66 0 51 c0 45 -4 55
-33 83 l-33 32 -406 0 -406 0 -31 -35 -31 -36 0 -1102 0 -1103 38 -37 38 -37
430 0 430 0 31 33 32 32 4 535 c5 568 8 612 58 770 70 223 200 279 437 188 83
-32 94 -34 101 -19 8 14 191 434 277 634 l33 77 -59 30 c-96 49 -202 87 -283
104 -92 19 -241 19 -320 0z"/>
<path d="M33087 20520 c-166 -30 -312 -100 -424 -203 l-43 -40 0 66 c0 60 -3
70 -31 102 l-31 35 -407 0 -407 0 -32 -33 -32 -33 0 -1530 0 -1530 33 -32 33
-32 435 0 435 0 32 33 32 33 0 447 c0 246 2 447 4 447 2 0 33 -17 67 -38 136
-82 265 -119 450 -129 383 -20 704 151 894 475 146 251 200 666 135 1047 -24
143 -67 272 -132 397 -141 275 -323 430 -593 504 -69 19 -341 28 -418 14z
m-25 -765 c25 -9 64 -34 87 -58 79 -77 108 -162 118 -333 14 -252 -46 -421
-171 -487 -57 -29 -163 -28 -228 2 -65 31 -130 104 -157 177 -64 169 -46 455
36 587 63 101 202 150 315 112z"/>
<path d="M18742 20447 l-32 -33 0 -1110 0 -1110 33 -32 33 -32 425 0 425 0 37
38 37 38 0 1100 0 1100 -38 37 -38 37 -425 0 -425 0 -32 -33z"/>
<path d="M30212 20447 l-32 -33 0 -1110 0 -1110 33 -32 33 -32 425 0 425 0 37
38 37 38 0 1102 0 1101 -31 36 -31 35 -432 0 -432 0 -32 -33z"/>
</g>
</svg>
